<svg width="205" height="32" viewBox="0 0 205 32" fill="none" xmlns="http://www.w3.org/2000/svg">
<path d="M14.3815 25C3.72674 25 1.44912 13.2256 2.10275 7C13.3604 7.00009 14.3815 18.4824 14.3815 25ZM14.3815 25C18.615 25 27.4539 23.2947 26.7069 7C21.6802 7 14.3815 10.8141 14.3815 25ZM25.7731 22.6994C27.983 22.6092 31.7397 20.5881 29.0879 13.2257" stroke="#1C8026" stroke-width="2" stroke-linecap="round"/>
<path d="M49.1307 13.5795C49.036 13.2727 48.9053 12.9981 48.7386 12.7557C48.5758 12.5095 48.3788 12.2992 48.1477 12.125C47.9205 11.9508 47.6591 11.8201 47.3636 11.733C47.0682 11.642 46.7462 11.5966 46.3977 11.5966C45.7727 11.5966 45.2159 11.7538 44.7273 12.0682C44.2386 12.3826 43.8542 12.8447 43.5739 13.4545C43.2973 14.0606 43.1591 14.7992 43.1591 15.6705C43.1591 16.5492 43.2973 17.2936 43.5739 17.9034C43.8504 18.5133 44.2348 18.9773 44.7273 19.2955C45.2197 19.6098 45.7917 19.767 46.4432 19.767C47.0341 19.767 47.5455 19.6534 47.9773 19.4261C48.4129 19.1989 48.7481 18.8769 48.983 18.4602C49.2178 18.0398 49.3352 17.5473 49.3352 16.983L49.8125 17.0568H46.6534V15.4091H51.375V16.8068C51.375 17.803 51.1629 18.6648 50.7386 19.392C50.3144 20.1193 49.7311 20.6799 48.9886 21.0739C48.2462 21.464 47.3939 21.6591 46.4318 21.6591C45.3598 21.6591 44.4186 21.4186 43.608 20.9375C42.8011 20.4527 42.1705 19.7652 41.7159 18.875C41.2652 17.9811 41.0398 16.9205 41.0398 15.6932C41.0398 14.7538 41.1723 13.9148 41.4375 13.1761C41.7064 12.4375 42.0814 11.8106 42.5625 11.2955C43.0436 10.7765 43.608 10.3826 44.2557 10.1136C44.9034 9.84091 45.608 9.70455 46.3693 9.70455C47.0133 9.70455 47.6136 9.79924 48.1705 9.98864C48.7273 10.1742 49.2216 10.4394 49.6534 10.7841C50.089 11.1288 50.447 11.5379 50.7273 12.0114C51.0076 12.4848 51.1913 13.0076 51.2784 13.5795H49.1307ZM53.3224 21.5V12.7727H55.3168V14.2273H55.4077C55.5668 13.7235 55.8395 13.3352 56.2259 13.0625C56.616 12.786 57.0611 12.6477 57.5611 12.6477C57.6747 12.6477 57.8016 12.6534 57.9418 12.6648C58.0857 12.6723 58.205 12.6856 58.2997 12.7045V14.5966C58.2126 14.5663 58.0743 14.5398 57.8849 14.517C57.6993 14.4905 57.5194 14.4773 57.3452 14.4773C56.9702 14.4773 56.633 14.5587 56.3338 14.7216C56.0384 14.8807 55.8054 15.1023 55.6349 15.3864C55.4645 15.6705 55.3793 15.9981 55.3793 16.3693V21.5H53.3224ZM63.1705 21.6705C62.2955 21.6705 61.5398 21.4886 60.9034 21.125C60.2708 20.7576 59.7841 20.2386 59.4432 19.5682C59.1023 18.8939 58.9318 18.1004 58.9318 17.1875C58.9318 16.2898 59.1023 15.5019 59.4432 14.8239C59.7879 14.142 60.2689 13.6117 60.8864 13.233C61.5038 12.8504 62.2292 12.6591 63.0625 12.6591C63.6004 12.6591 64.108 12.7462 64.5852 12.9205C65.0663 13.0909 65.4905 13.3561 65.858 13.7159C66.2292 14.0758 66.5208 14.5341 66.733 15.0909C66.9451 15.6439 67.0511 16.303 67.0511 17.0682V17.6989H59.8977V16.3125H65.0795C65.0758 15.9186 64.9905 15.5682 64.8239 15.2614C64.6572 14.9508 64.4242 14.7064 64.125 14.5284C63.8295 14.3504 63.4848 14.2614 63.0909 14.2614C62.6705 14.2614 62.3011 14.3636 61.983 14.5682C61.6648 14.7689 61.4167 15.0341 61.2386 15.3636C61.0644 15.6894 60.9754 16.0473 60.9716 16.4375V17.6477C60.9716 18.1553 61.0644 18.5909 61.25 18.9545C61.4356 19.3144 61.6951 19.5909 62.0284 19.7841C62.3617 19.9735 62.7519 20.0682 63.1989 20.0682C63.4981 20.0682 63.7689 20.0265 64.0114 19.9432C64.2538 19.8561 64.464 19.7292 64.642 19.5625C64.8201 19.3958 64.9545 19.1894 65.0455 18.9432L66.9659 19.1591C66.8447 19.6667 66.6136 20.1098 66.2727 20.4886C65.9356 20.8636 65.5038 21.1553 64.9773 21.3636C64.4508 21.5682 63.8485 21.6705 63.1705 21.6705ZM72.6548 21.6705C71.7798 21.6705 71.0241 21.4886 70.3878 21.125C69.7552 20.7576 69.2685 20.2386 68.9276 19.5682C68.5866 18.8939 68.4162 18.1004 68.4162 17.1875C68.4162 16.2898 68.5866 15.5019 68.9276 14.8239C69.2723 14.142 69.7533 13.6117 70.3707 13.233C70.9882 12.8504 71.7135 12.6591 72.5469 12.6591C73.0848 12.6591 73.5923 12.7462 74.0696 12.9205C74.5507 13.0909 74.9749 13.3561 75.3423 13.7159C75.7135 14.0758 76.0052 14.5341 76.2173 15.0909C76.4295 15.6439 76.5355 16.303 76.5355 17.0682V17.6989H69.3821V16.3125H74.5639C74.5601 15.9186 74.4749 15.5682 74.3082 15.2614C74.1416 14.9508 73.9086 14.7064 73.6094 14.5284C73.3139 14.3504 72.9692 14.2614 72.5753 14.2614C72.1548 14.2614 71.7855 14.3636 71.4673 14.5682C71.1491 14.7689 70.901 15.0341 70.723 15.3636C70.5488 15.6894 70.4598 16.0473 70.456 16.4375V17.6477C70.456 18.1553 70.5488 18.5909 70.7344 18.9545C70.92 19.3144 71.1795 19.5909 71.5128 19.7841C71.8461 19.9735 72.2363 20.0682 72.6832 20.0682C72.9825 20.0682 73.2533 20.0265 73.4957 19.9432C73.7382 19.8561 73.9484 19.7292 74.1264 19.5625C74.3045 19.3958 74.4389 19.1894 74.5298 18.9432L76.4503 19.1591C76.3291 19.6667 76.098 20.1098 75.7571 20.4886C75.42 20.8636 74.9882 21.1553 74.4616 21.3636C73.9351 21.5682 73.3329 21.6705 72.6548 21.6705ZM80.3324 16.3864V21.5H78.2756V12.7727H80.2415V14.2557H80.3438C80.5445 13.767 80.8646 13.3788 81.304 13.0909C81.7472 12.803 82.2945 12.6591 82.946 12.6591C83.5483 12.6591 84.0729 12.7879 84.5199 13.0455C84.9706 13.303 85.3191 13.6761 85.5653 14.1648C85.8153 14.6534 85.9384 15.2462 85.9347 15.9432V21.5H83.8778V16.2614C83.8778 15.678 83.7263 15.2216 83.4233 14.892C83.1241 14.5625 82.7093 14.3977 82.179 14.3977C81.8191 14.3977 81.4991 14.4773 81.2188 14.6364C80.9422 14.7917 80.7244 15.017 80.5653 15.3125C80.41 15.608 80.3324 15.9659 80.3324 16.3864ZM92.0852 21.5V9.86364H94.1932V14.7898H99.5852V9.86364H101.699V21.5H99.5852V16.5568H94.1932V21.5H92.0852ZM106.412 21.6761C105.859 21.6761 105.361 21.5777 104.918 21.3807C104.478 21.1799 104.13 20.8845 103.872 20.4943C103.618 20.1042 103.491 19.6231 103.491 19.0511C103.491 18.5587 103.582 18.1515 103.764 17.8295C103.946 17.5076 104.194 17.25 104.509 17.0568C104.823 16.8636 105.177 16.7178 105.571 16.6193C105.969 16.517 106.38 16.4432 106.804 16.3977C107.315 16.3447 107.73 16.2973 108.048 16.2557C108.366 16.2102 108.598 16.142 108.741 16.0511C108.889 15.9564 108.963 15.8106 108.963 15.6136V15.5795C108.963 15.1515 108.836 14.8201 108.582 14.5852C108.329 14.3504 107.963 14.233 107.486 14.233C106.982 14.233 106.582 14.3428 106.287 14.5625C105.995 14.7822 105.798 15.0417 105.696 15.3409L103.776 15.0682C103.927 14.5379 104.177 14.0947 104.526 13.7386C104.874 13.3788 105.3 13.1098 105.804 12.9318C106.308 12.75 106.865 12.6591 107.474 12.6591C107.895 12.6591 108.313 12.7083 108.73 12.8068C109.147 12.9053 109.527 13.0682 109.872 13.2955C110.217 13.5189 110.493 13.8239 110.702 14.2102C110.914 14.5966 111.02 15.0795 111.02 15.6591V21.5H109.043V20.3011H108.974C108.849 20.5436 108.673 20.7708 108.446 20.983C108.223 21.1913 107.94 21.3598 107.599 21.4886C107.262 21.6136 106.866 21.6761 106.412 21.6761ZM106.946 20.1648C107.359 20.1648 107.717 20.0833 108.02 19.9205C108.323 19.7538 108.556 19.5341 108.719 19.2614C108.885 18.9886 108.969 18.6913 108.969 18.3693V17.3409C108.904 17.3939 108.795 17.4432 108.639 17.4886C108.488 17.5341 108.317 17.5739 108.128 17.608C107.938 17.642 107.751 17.6723 107.565 17.6989C107.38 17.7254 107.219 17.7481 107.082 17.767C106.776 17.8087 106.501 17.8769 106.259 17.9716C106.016 18.0663 105.825 18.1989 105.685 18.3693C105.545 18.536 105.474 18.7519 105.474 19.017C105.474 19.3958 105.613 19.6818 105.889 19.875C106.166 20.0682 106.518 20.1648 106.946 20.1648ZM120.571 12.7727L117.463 21.5H115.19L112.082 12.7727H114.276L116.281 19.2557H116.372L118.384 12.7727H120.571ZM125.561 21.6705C124.686 21.6705 123.93 21.4886 123.294 21.125C122.661 20.7576 122.175 20.2386 121.834 19.5682C121.493 18.8939 121.322 18.1004 121.322 17.1875C121.322 16.2898 121.493 15.5019 121.834 14.8239C122.179 14.142 122.66 13.6117 123.277 13.233C123.894 12.8504 124.62 12.6591 125.453 12.6591C125.991 12.6591 126.499 12.7462 126.976 12.9205C127.457 13.0909 127.881 13.3561 128.249 13.7159C128.62 14.0758 128.911 14.5341 129.124 15.0909C129.336 15.6439 129.442 16.303 129.442 17.0682V17.6989H122.288V16.3125H127.47C127.466 15.9186 127.381 15.5682 127.214 15.2614C127.048 14.9508 126.815 14.7064 126.516 14.5284C126.22 14.3504 125.875 14.2614 125.482 14.2614C125.061 14.2614 124.692 14.3636 124.374 14.5682C124.055 14.7689 123.807 15.0341 123.629 15.3636C123.455 15.6894 123.366 16.0473 123.362 16.4375V17.6477C123.362 18.1553 123.455 18.5909 123.641 18.9545C123.826 19.3144 124.086 19.5909 124.419 19.7841C124.752 19.9735 125.143 20.0682 125.589 20.0682C125.889 20.0682 126.16 20.0265 126.402 19.9432C126.644 19.8561 126.855 19.7292 127.033 19.5625C127.211 19.3958 127.345 19.1894 127.436 18.9432L129.357 19.1591C129.235 19.6667 129.004 20.1098 128.663 20.4886C128.326 20.8636 127.894 21.1553 127.368 21.3636C126.841 21.5682 126.239 21.6705 125.561 21.6705ZM133.239 16.3864V21.5H131.182V12.7727H133.148V14.2557H133.25C133.451 13.767 133.771 13.3788 134.21 13.0909C134.653 12.803 135.201 12.6591 135.852 12.6591C136.455 12.6591 136.979 12.7879 137.426 13.0455C137.877 13.303 138.225 13.6761 138.472 14.1648C138.722 14.6534 138.845 15.2462 138.841 15.9432V21.5H136.784V16.2614C136.784 15.678 136.633 15.2216 136.33 14.892C136.03 14.5625 135.616 14.3977 135.085 14.3977C134.725 14.3977 134.405 14.4773 134.125 14.6364C133.848 14.7917 133.631 15.017 133.472 15.3125C133.316 15.608 133.239 15.9659 133.239 16.3864ZM144.991 21.5V9.86364H147.099V14.7898H152.491V9.86364H154.605V21.5H152.491V16.5568H147.099V21.5H144.991ZM159.318 21.6761C158.765 21.6761 158.267 21.5777 157.824 21.3807C157.384 21.1799 157.036 20.8845 156.778 20.4943C156.525 20.1042 156.398 19.6231 156.398 19.0511C156.398 18.5587 156.489 18.1515 156.67 17.8295C156.852 17.5076 157.1 17.25 157.415 17.0568C157.729 16.8636 158.083 16.7178 158.477 16.6193C158.875 16.517 159.286 16.4432 159.71 16.3977C160.222 16.3447 160.636 16.2973 160.955 16.2557C161.273 16.2102 161.504 16.142 161.648 16.0511C161.795 15.9564 161.869 15.8106 161.869 15.6136V15.5795C161.869 15.1515 161.742 14.8201 161.489 14.5852C161.235 14.3504 160.869 14.233 160.392 14.233C159.888 14.233 159.489 14.3428 159.193 14.5625C158.902 14.7822 158.705 15.0417 158.602 15.3409L156.682 15.0682C156.833 14.5379 157.083 14.0947 157.432 13.7386C157.78 13.3788 158.206 13.1098 158.71 12.9318C159.214 12.75 159.771 12.6591 160.381 12.6591C160.801 12.6591 161.22 12.7083 161.636 12.8068C162.053 12.9053 162.434 13.0682 162.778 13.2955C163.123 13.5189 163.4 13.8239 163.608 14.2102C163.82 14.5966 163.926 15.0795 163.926 15.6591V21.5H161.949V20.3011H161.881C161.756 20.5436 161.58 20.7708 161.352 20.983C161.129 21.1913 160.847 21.3598 160.506 21.4886C160.169 21.6136 159.773 21.6761 159.318 21.6761ZM159.852 20.1648C160.265 20.1648 160.623 20.0833 160.926 19.9205C161.229 19.7538 161.462 19.5341 161.625 19.2614C161.792 18.9886 161.875 18.6913 161.875 18.3693V17.3409C161.811 17.3939 161.701 17.4432 161.545 17.4886C161.394 17.5341 161.223 17.5739 161.034 17.608C160.845 17.642 160.657 17.6723 160.472 17.6989C160.286 17.7254 160.125 17.7481 159.989 17.767C159.682 17.8087 159.407 17.8769 159.165 17.9716C158.922 18.0663 158.731 18.1989 158.591 18.3693C158.451 18.536 158.381 18.7519 158.381 19.017C158.381 19.3958 158.519 19.6818 158.795 19.875C159.072 20.0682 159.424 20.1648 159.852 20.1648ZM165.994 21.5V12.7727H167.989V14.2273H168.08C168.239 13.7235 168.511 13.3352 168.898 13.0625C169.288 12.786 169.733 12.6477 170.233 12.6477C170.347 12.6477 170.473 12.6534 170.614 12.6648C170.758 12.6723 170.877 12.6856 170.972 12.7045V14.5966C170.884 14.5663 170.746 14.5398 170.557 14.517C170.371 14.4905 170.191 14.4773 170.017 14.4773C169.642 14.4773 169.305 14.5587 169.006 14.7216C168.71 14.8807 168.477 15.1023 168.307 15.3864C168.136 15.6705 168.051 15.9981 168.051 16.3693V21.5H165.994ZM180.399 12.7727L177.291 21.5H175.018L171.911 12.7727H174.104L176.109 19.2557H176.2L178.212 12.7727H180.399ZM185.389 21.6705C184.514 21.6705 183.759 21.4886 183.122 21.125C182.49 20.7576 182.003 20.2386 181.662 19.5682C181.321 18.8939 181.151 18.1004 181.151 17.1875C181.151 16.2898 181.321 15.5019 181.662 14.8239C182.007 14.142 182.488 13.6117 183.105 13.233C183.723 12.8504 184.448 12.6591 185.281 12.6591C185.819 12.6591 186.327 12.7462 186.804 12.9205C187.285 13.0909 187.709 13.3561 188.077 13.7159C188.448 14.0758 188.74 14.5341 188.952 15.0909C189.164 15.6439 189.27 16.303 189.27 17.0682V17.6989H182.116V16.3125H187.298C187.295 15.9186 187.209 15.5682 187.043 15.2614C186.876 14.9508 186.643 14.7064 186.344 14.5284C186.048 14.3504 185.704 14.2614 185.31 14.2614C184.889 14.2614 184.52 14.3636 184.202 14.5682C183.884 14.7689 183.635 15.0341 183.457 15.3636C183.283 15.6894 183.194 16.0473 183.19 16.4375V17.6477C183.19 18.1553 183.283 18.5909 183.469 18.9545C183.654 19.3144 183.914 19.5909 184.247 19.7841C184.58 19.9735 184.971 20.0682 185.418 20.0682C185.717 20.0682 185.988 20.0265 186.23 19.9432C186.473 19.8561 186.683 19.7292 186.861 19.5625C187.039 19.3958 187.173 19.1894 187.264 18.9432L189.185 19.1591C189.063 19.6667 188.832 20.1098 188.491 20.4886C188.154 20.8636 187.723 21.1553 187.196 21.3636C186.67 21.5682 186.067 21.6705 185.389 21.6705ZM197.908 15.0795L196.033 15.2841C195.98 15.0947 195.887 14.9167 195.754 14.75C195.625 14.5833 195.451 14.4489 195.232 14.3466C195.012 14.2443 194.743 14.1932 194.425 14.1932C193.997 14.1932 193.637 14.286 193.345 14.4716C193.057 14.6572 192.915 14.8977 192.919 15.1932C192.915 15.447 193.008 15.6534 193.197 15.8125C193.391 15.9716 193.709 16.1023 194.152 16.2045L195.641 16.5227C196.466 16.7008 197.08 16.983 197.482 17.3693C197.887 17.7557 198.091 18.2614 198.095 18.8864C198.091 19.4356 197.93 19.9205 197.612 20.3409C197.298 20.7576 196.86 21.0833 196.3 21.3182C195.739 21.553 195.095 21.6705 194.368 21.6705C193.3 21.6705 192.44 21.447 191.788 21C191.137 20.5492 190.749 19.9223 190.624 19.1193L192.629 18.9261C192.72 19.3201 192.913 19.6174 193.209 19.8182C193.504 20.0189 193.889 20.1193 194.362 20.1193C194.851 20.1193 195.243 20.0189 195.538 19.8182C195.838 19.6174 195.987 19.3693 195.987 19.0739C195.987 18.8239 195.891 18.6174 195.697 18.4545C195.508 18.2917 195.213 18.1667 194.811 18.0795L193.322 17.767C192.485 17.5928 191.866 17.2992 191.464 16.8864C191.063 16.4697 190.864 15.9432 190.868 15.3068C190.864 14.7689 191.01 14.303 191.305 13.9091C191.605 13.5114 192.019 13.2045 192.55 12.9886C193.084 12.7689 193.699 12.6591 194.396 12.6591C195.419 12.6591 196.224 12.8769 196.811 13.3125C197.402 13.7481 197.768 14.3371 197.908 15.0795ZM204.149 12.7727V14.3636H199.132V12.7727H204.149ZM200.371 10.6818H202.428V18.875C202.428 19.1515 202.469 19.3636 202.553 19.5114C202.64 19.6553 202.753 19.7538 202.893 19.8068C203.034 19.8598 203.189 19.8864 203.359 19.8864C203.488 19.8864 203.606 19.8769 203.712 19.858C203.821 19.839 203.905 19.822 203.962 19.8068L204.308 21.4148C204.198 21.4527 204.041 21.4943 203.837 21.5398C203.636 21.5852 203.39 21.6117 203.098 21.6193C202.583 21.6345 202.119 21.5568 201.706 21.3864C201.293 21.2121 200.965 20.9432 200.723 20.5795C200.484 20.2159 200.367 19.7614 200.371 19.2159V10.6818Z" fill="#333333"/>
</svg>
