<svg width="32" height="32" viewBox="0 0 32 32" fill="none" xmlns="http://www.w3.org/2000/svg">
<path d="M20.9249 16.0357C20.9263 16.2695 20.8815 16.5013 20.7931 16.7177C20.7047 16.9342 20.5744 17.1311 20.4097 17.2971L13.3035 24.4033C13.1378 24.569 12.9412 24.7003 12.7248 24.79C12.5083 24.8796 12.2764 24.9258 12.0421 24.9258C11.8079 24.9258 11.5759 24.8796 11.3595 24.79C11.1431 24.7003 10.9464 24.569 10.7808 24.4033C10.6151 24.2377 10.4837 24.041 10.3941 23.8246C10.3044 23.6082 10.2583 23.3762 10.2583 23.142C10.2583 22.9077 10.3044 22.6757 10.3941 22.4593C10.4837 22.2429 10.6151 22.0462 10.7808 21.8806L16.6612 16.0357L11.0117 10.173C10.83 10.0096 10.684 9.81046 10.5827 9.58801C10.4815 9.36556 10.4272 9.12462 10.4234 8.88024C10.4195 8.63587 10.4661 8.39333 10.5602 8.16778C10.6544 7.94224 10.794 7.73855 10.9705 7.56944C11.1469 7.40034 11.3564 7.26946 11.5857 7.185C11.8151 7.10054 12.0594 7.0643 12.3034 7.07857C12.5473 7.09283 12.7858 7.15728 13.0037 7.26789C13.2216 7.3785 13.4144 7.53288 13.57 7.7214L20.4275 14.8276C20.7407 15.1525 20.9186 15.5845 20.9249 16.0357Z" fill="#333333"/>
</svg>
