<svg width="81" height="80" viewBox="0 0 81 80" fill="none" xmlns="http://www.w3.org/2000/svg">
<path fill-rule="evenodd" clip-rule="evenodd" d="M43.1761 18.7342L46.0342 20.8736C46.8159 21.4587 47.6386 21.7581 48.6135 21.8124L52.178 22.0107C54.3124 22.1294 56.0459 23.5839 56.5334 25.6653L57.3478 29.1413C57.5704 30.0919 58.0082 30.8502 58.7202 31.5183L61.3233 33.9616C62.882 35.4244 63.2749 37.653 62.3106 39.5608L60.7001 42.7469C60.2596 43.6183 60.1076 44.4805 60.2234 45.45L60.6472 48.9948C60.9009 51.1174 59.7694 53.0771 57.8044 53.9187L54.5226 55.3242C53.625 55.7086 52.9543 56.2713 52.42 57.0885L50.4659 60.0763C49.2959 61.8653 47.1695 62.6392 45.1233 62.0208L41.7059 60.9881C40.7713 60.7056 39.8958 60.7056 38.9611 60.9881L35.5438 62.0208C33.4976 62.6392 31.3711 61.8653 30.2011 60.0763L28.2471 57.0885C27.7126 56.2713 27.0419 55.7086 26.1445 55.3242L22.8625 53.9185C20.8975 53.0769 19.766 51.1172 20.0197 48.9946L20.4434 45.4498C20.5593 44.4803 20.4073 43.6181 19.9668 42.7467L18.3563 39.5606C17.392 37.6529 17.7849 35.4243 19.3436 33.9614L21.9467 31.5181C22.6587 30.85 23.0964 30.0917 23.319 29.1411L24.1333 25.6651C24.6208 23.5838 26.3544 22.1293 28.4888 22.0105L32.0533 21.8122C33.0282 21.758 33.8509 21.4585 34.6326 20.8734L37.4907 18.734C39.2019 17.4532 41.4648 17.4532 43.1761 18.7342ZM38.5102 41.2266L35.4086 38.125C34.6047 37.3211 33.3007 37.3211 32.4969 38.125C31.693 38.9289 31.693 40.2328 32.4969 41.0367L37.0588 45.5986C37.8628 46.4024 39.1667 46.4025 39.9705 45.5986C42.7202 42.8488 45.4388 40.0681 48.1758 37.3058C48.9739 36.5003 48.9714 35.2006 48.1669 34.4006C47.3623 33.6004 46.0588 33.6027 45.2599 34.4096L38.5102 41.2266ZM40.3333 24.6698C36.0995 24.6698 32.2663 26.386 29.4917 29.1606C26.7171 31.9353 25.0009 35.7684 25.0009 40.0022C25.0009 44.2361 26.7171 48.0692 29.4917 50.8439C32.2663 53.6185 36.0995 55.3347 40.3333 55.3347C44.5672 55.3347 48.4003 53.6185 51.175 50.8439C53.9496 48.0692 55.6658 44.2361 55.6658 40.0022C55.6658 35.7684 53.9496 31.9352 51.175 29.1606C48.4003 26.386 44.5672 24.6698 40.3333 24.6698ZM50.1144 30.2212C47.6112 27.7181 44.1531 26.1698 40.3333 26.1698C36.5136 26.1698 33.0554 27.7181 30.5523 30.2212C28.0492 32.7243 26.5009 36.1825 26.5009 40.0022C26.5009 43.822 28.0492 47.2801 30.5523 49.7833C33.0554 52.2864 36.5136 53.8347 40.3333 53.8347C44.1531 53.8347 47.6112 52.2864 50.1144 49.7834C52.6175 47.2802 54.1657 43.8221 54.1657 40.0023C54.1658 36.1825 52.6175 32.7243 50.1144 30.2212Z" fill="#333333"/>
</svg>
