<svg width="81" height="80" viewBox="0 0 81 80" fill="none" xmlns="http://www.w3.org/2000/svg">
<g clip-path="url(#clip0_960_35730)">
<path d="M41.1353 37.3483C40.2331 37.6692 39.2607 36.9999 39.2607 36.0217V27.3438H32.5618C31.3481 27.3438 30.7052 28.7829 31.514 29.688C31.9754 30.2029 32.2295 30.869 32.2295 31.5625C32.2295 33.1129 30.9674 34.375 29.417 34.375C27.8666 34.375 26.6045 33.1129 26.6045 31.5625C26.6045 30.869 26.8586 30.2029 27.32 29.688C28.1288 28.7829 27.4859 27.3438 26.2721 27.3438H20.8857C18.5594 27.3438 16.667 29.2362 16.667 31.5625V48.4375C16.667 50.7638 18.5594 52.6562 20.8857 52.6562H23.792C23.792 55.7585 26.3147 58.2812 29.417 58.2812C32.5193 58.2812 35.042 55.7585 35.042 52.6562H39.2607V43.9785C39.2607 43.0132 40.265 42.3501 41.1353 42.6519C42.8821 43.274 44.8843 41.8705 44.8857 40.0001C44.8857 38.127 42.8848 36.7247 41.1353 37.3483Z" fill="#333333"/>
<path d="M60.4482 27.3438H57.542C57.542 24.2415 55.0193 21.7188 51.917 21.7188C48.8147 21.7188 46.292 24.2415 46.292 27.3438H42.0732V34.375C45.1755 34.375 47.6982 36.8977 47.6982 40C47.6982 43.1023 45.1755 45.625 42.0732 45.625V52.6562H60.4482C62.7746 52.6562 64.667 50.7638 64.667 48.4375V31.5625C64.667 29.2362 62.7746 27.3438 60.4482 27.3438Z" fill="#333333"/>
</g>
<defs>
<clipPath id="clip0_960_35730">
<rect width="48" height="48" fill="white" transform="translate(16.667 16)"/>
</clipPath>
</defs>
</svg>
