<svg width="81" height="80" viewBox="0 0 81 80" fill="none" xmlns="http://www.w3.org/2000/svg">
<path d="M40.3335 12C24.8275 12 12.3335 24.494 12.3335 40C12.3335 55.506 24.8275 68 40.3335 68C55.8395 68 68.3335 55.506 68.3335 40C68.3335 24.494 55.8395 12 40.3335 12ZM55.4104 40.8582C55.4104 41.7248 55.1917 42.3726 54.9813 43.2308L52.1797 51.4171C51.5318 53.5709 49.378 55.0769 47.0138 55.0769H33.872C29.1352 55.0769 25.2566 51.1983 25.2566 46.4615V36.988C25.2566 34.8341 26.3335 32.8906 28.0583 31.6034L42.2686 20.8341C42.2686 20.8341 45.289 21.4736 45.289 24.2752C45.289 25.3522 41.4104 31.3846 41.4104 31.3846H51.1027C53.4753 31.3846 55.4104 33.3197 55.4104 35.6923V40.8582Z" fill="#333333"/>
</svg>
