<svg width="80" height="80" viewBox="0 0 80 80" fill="none" xmlns="http://www.w3.org/2000/svg">
<g clip-path="url(#clip0_960_35580)">
<path d="M38.5898 51.6873V40.9294L33.0168 35.3568C32.4535 34.7936 32.4535 33.8806 33.0168 33.3177C33.5796 32.7545 34.4926 32.7545 35.0558 33.3177L40.0319 38.2938L45.008 33.3177C45.5708 32.7545 46.4838 32.7545 47.047 33.3177C47.6099 33.8806 47.6099 34.7936 47.047 35.3568L41.4733 40.9302V51.6873H49.4578C49.7574 49.7101 50.7106 47.86 52.1751 46.4724C53.8977 44.8398 55.2531 42.915 56.2038 40.7511C57.1885 38.5099 57.6877 36.1229 57.6877 33.6561C57.6877 28.9774 55.876 24.5686 52.5867 21.2419C49.3 17.9182 44.9172 16.0571 40.2461 16.0011C40.1744 16.0004 40.104 16 40.0326 16C30.4288 16 22.5285 23.7498 22.3772 33.3727C22.3381 35.8798 22.8134 38.3092 23.7912 40.5944C24.7338 42.7982 26.0943 44.7585 27.8345 46.4215C29.3257 47.8461 30.2969 49.7137 30.6031 51.6873H38.5898Z" fill="#424244"/>
<path d="M30.707 54.5703V57.1898C30.707 60.9449 33.7616 63.9995 37.5164 63.9995H42.5463C46.301 63.9995 49.356 60.9449 49.356 57.1898V54.5703H30.707Z" fill="#424244"/>
</g>
<defs>
<clipPath id="clip0_960_35580">
<rect width="48" height="48" fill="white" transform="translate(16 16)"/>
</clipPath>
</defs>
</svg>
