<svg width="80" height="80" viewBox="0 0 80 80" fill="none" xmlns="http://www.w3.org/2000/svg">
<path d="M40.4683 37.3483C39.5661 37.6692 38.5938 36.9999 38.5938 36.0217V27.3438H31.8948C30.6811 27.3438 30.0382 28.7829 30.847 29.688C31.3084 30.2029 31.5625 30.869 31.5625 31.5625C31.5625 33.1129 30.3004 34.375 28.75 34.375C27.1996 34.375 25.9375 33.1129 25.9375 31.5625C25.9375 30.869 26.1916 30.2029 26.653 29.688C27.4618 28.7829 26.8189 27.3438 25.6052 27.3438H20.2188C17.8924 27.3438 16 29.2362 16 31.5625V48.4375C16 50.7638 17.8924 52.6562 20.2188 52.6562H23.125C23.125 55.7585 25.6477 58.2812 28.75 58.2812C31.8523 58.2812 34.375 55.7585 34.375 52.6562H38.5938V43.9785C38.5938 43.0132 39.598 42.3501 40.4683 42.6519C42.2151 43.274 44.2173 41.8705 44.2188 40.0001C44.2188 38.127 42.2178 36.7247 40.4683 37.3483Z" fill="#333333"/>
<path d="M59.7812 27.3438H56.875C56.875 24.2415 54.3523 21.7188 51.25 21.7188C48.1477 21.7188 45.625 24.2415 45.625 27.3438H41.4062V34.375C44.5085 34.375 47.0312 36.8977 47.0312 40C47.0312 43.1023 44.5085 45.625 41.4062 45.625V52.6562H59.7812C62.1076 52.6562 64 50.7638 64 48.4375V31.5625C64 29.2362 62.1076 27.3438 59.7812 27.3438Z" fill="#333333"/>
</svg>
