<svg width="81" height="80" viewBox="0 0 81 80" fill="none" xmlns="http://www.w3.org/2000/svg">
<path d="M14.1792 41.1651C13.3185 42.1257 13.3185 43.58 14.1792 44.5406L24.3487 55.8903C25.3562 57.0148 27.1182 57.0117 28.1218 55.8837C28.9769 54.9227 28.9743 53.4729 28.1159 52.5149L17.9464 41.1651C16.9412 40.0433 15.1844 40.0433 14.1792 41.1651ZM67.1498 24.1143C66.141 22.9885 64.3778 22.9889 63.3695 24.1152L42.8047 47.0884C41.214 48.8654 38.4316 48.8644 36.8422 47.0863L31.5299 41.1434C30.527 40.0216 28.7737 40.0144 27.7617 41.128C26.8873 42.0903 26.8821 43.558 27.7498 44.5264L36.8432 54.6752C38.433 56.4495 41.2116 56.4495 42.8014 54.6752L67.1498 27.5008C68.0133 26.5371 68.0133 25.078 67.1498 24.1143ZM53.5806 27.4851C54.439 26.5271 54.4415 25.0773 53.5865 24.1163C52.5829 22.9883 50.8209 22.9852 49.8134 24.1097L37.932 37.3699C37.0691 38.333 37.0716 39.792 37.938 40.752C38.9447 41.8677 40.6964 41.8646 41.6992 40.7454L53.5806 27.4851Z" fill="#424244"/>
</svg>
