<svg width="81" height="80" viewBox="0 0 81 80" fill="none" xmlns="http://www.w3.org/2000/svg">
<path d="M50.2219 17.2936C49.7574 16.5477 48.8209 16.2481 48.0098 16.5861C47.2108 16.919 46.7636 17.7752 46.9469 18.6212L47.1105 19.3762C47.2774 20.1465 46.9669 20.9236 46.4238 21.4947C45.8796 22.067 45.0889 22.3866 44.3193 22.2099L43.5172 22.0259C42.6669 21.8307 41.7999 22.2769 41.4644 23.0821C41.1292 23.8864 41.4219 24.8151 42.1576 25.282L42.7866 25.6812C43.464 26.1111 43.8003 26.9065 43.8046 27.7088C43.8089 28.5001 43.473 29.2738 42.8049 29.6978L42.1354 30.1226C41.4095 30.5833 41.1133 31.4948 41.4297 32.2942C41.7515 33.1073 42.6133 33.5691 43.4685 33.3868L44.2764 33.2147C45.0382 33.0523 45.8043 33.3562 46.3669 33.8949C46.943 34.4465 47.2612 35.2508 47.0707 36.0253L46.8787 36.8061C46.6691 37.6587 47.1123 38.5369 47.9228 38.8746C48.7197 39.2067 49.64 38.9192 50.1061 38.1925L50.5726 37.4654C50.9992 36.8004 51.7854 36.4693 52.5755 36.4704C53.3781 36.4715 54.1607 36.8143 54.585 37.4957L55.0206 38.1953C55.4725 38.9211 56.3787 39.2199 57.1737 38.9052C57.9865 38.5835 58.4425 37.7164 58.2469 36.8644L58.0658 36.075C57.8888 35.3041 58.1945 34.5192 58.74 33.9465C59.282 33.3775 60.0681 33.0597 60.8347 33.2328L61.7081 33.43C62.5545 33.6211 63.4157 33.176 63.7495 32.3751C64.086 31.5675 63.7877 30.6351 63.0451 30.1727L62.3555 29.7434C61.6886 29.3281 61.3549 28.5472 61.352 27.7616C61.3492 26.9889 61.6745 26.2375 62.3249 25.8203L63.067 25.3442C63.7994 24.8744 64.0892 23.9468 63.7545 23.1436C63.4181 22.3364 62.5489 21.8891 61.6966 22.0847L60.9093 22.2654C60.1353 22.4431 59.3508 22.1296 58.7993 21.5581C58.2569 20.9961 57.9469 20.2106 58.1244 19.45L58.3012 18.6923C58.4996 17.842 58.0544 16.9728 57.2484 16.6369C56.4456 16.3024 55.5185 16.5946 55.0525 17.3289L54.6481 17.9662C54.2205 18.64 53.4265 18.9746 52.6284 18.9783C51.8343 18.9819 51.0607 18.6408 50.641 17.9667L50.2219 17.2936ZM52.6087 23.5453C53.1528 23.5453 53.697 23.6687 54.2339 23.8936C56.3741 24.7932 57.3898 27.2092 56.4975 29.3495C55.6051 31.4897 53.1238 32.5054 50.9836 31.6131C48.8433 30.7207 47.8276 28.2467 48.7199 26.0992C49.3947 24.4958 50.969 23.5526 52.6087 23.5453ZM32.0743 32.4837C30.9297 32.4837 29.9539 33.3137 29.7703 34.4435L29.6088 35.4373C29.4423 36.4617 28.6554 37.2657 27.6949 37.6589C26.747 38.0469 25.6618 38.0206 24.8275 37.4265L23.9822 36.8245C23.0511 36.1615 21.7774 36.2678 20.9691 37.0761C20.1672 37.878 20.0555 39.1394 20.7039 40.0698L21.2737 40.8873C21.8696 41.7422 21.8904 42.8482 21.5077 43.8175C21.1205 44.7984 20.3022 45.5944 19.2613 45.7636L18.2929 45.9209C17.163 46.1045 16.333 47.0803 16.333 48.225C16.333 49.3589 17.1479 50.3288 18.2649 50.5243L19.3108 50.7073C20.3228 50.8844 21.1102 51.6656 21.4948 52.6183C21.8824 53.5786 21.8637 54.6799 21.263 55.5234L20.678 56.3451C20.0126 57.2794 20.1193 58.5577 20.9304 59.3688C21.7307 60.1692 22.988 60.285 23.9211 59.6444L24.8185 59.0283C25.66 58.4506 26.7438 58.4384 27.6889 58.8239C28.6555 59.2182 29.4429 60.0254 29.6103 61.0558L29.7703 62.0401C29.9539 63.17 30.9297 64 32.0743 64C33.2082 64 34.1782 63.1851 34.3736 62.0681L34.5546 61.0342C34.7332 60.0136 35.5172 59.2128 36.469 58.8034C37.427 58.3913 38.5336 58.4084 39.3873 59.0073L40.2723 59.6282C41.1968 60.2767 42.4535 60.1673 43.252 59.3688C44.0611 58.5596 44.1614 57.2821 43.4884 56.3567L42.8757 55.5143C42.2665 54.6767 42.2354 53.5767 42.6247 52.6169C43.0103 51.6661 43.8011 50.8859 44.8121 50.7112L45.9166 50.5203C47.0335 50.3272 47.8493 49.3583 47.8493 48.2248C47.8493 47.0808 47.0186 46.1061 45.889 45.9248L44.8406 45.7565C43.8142 45.5918 43.0074 44.8085 42.6151 43.8459C42.2289 42.8982 42.2496 41.8111 42.8373 40.9734L43.4775 40.0607C44.126 39.1362 44.0166 37.8795 43.2181 37.081C42.409 36.2719 41.1315 36.1716 40.2061 36.8446L39.3761 37.4483C38.5312 38.0627 37.4189 38.0889 36.4598 37.6747C35.5135 37.2661 34.7334 36.4717 34.5558 35.4563L34.3736 34.4156C34.1782 33.2986 33.2082 32.4837 32.0743 32.4837ZM32.1202 42.757C35.1601 42.757 37.5761 45.1729 37.5761 48.2128C37.5761 51.2527 35.1601 53.7267 32.1202 53.7267C29.0803 53.7267 26.6063 51.2527 26.6063 48.2128C26.6063 45.1729 29.0803 42.757 32.1202 42.757Z" fill="#333333"/>
</svg>
