<svg width="80" height="80" viewBox="0 0 80 80" fill="none" xmlns="http://www.w3.org/2000/svg">
<g clip-path="url(#clip0_960_35991)">
<path d="M62.982 39.6569L52.482 36.0849C52.17 35.9769 51.83 35.9769 51.518 36.0849L41.018 39.6569C40.408 39.8629 40 40.4329 40 41.0769V49.1129C40 58.9209 50.948 63.6889 51.414 63.8869C51.79 64.0449 52.21 64.0449 52.586 63.8869C53.052 63.6869 64 58.9209 64 49.1129V41.0769C64 40.4329 63.592 39.8629 62.982 39.6569ZM58.572 47.2409L53.072 54.2409C52.372 55.1349 51.06 55.2649 50.198 54.5249L46.698 51.5249C45.858 50.8069 45.76 49.5429 46.482 48.7049C47.2 47.8669 48.464 47.7709 49.3 48.4889L51.216 50.1309L55.426 44.7729C56.108 43.9049 57.364 43.7509 58.234 44.4369C59.104 45.1149 59.256 46.3729 58.572 47.2409Z" fill="#333333"/>
<path d="M58.572 47.2409L53.072 54.2409C52.372 55.1349 51.06 55.2649 50.198 54.5249L46.698 51.5249C45.858 50.8069 45.76 49.5429 46.482 48.7049C47.2 47.8669 48.464 47.7709 49.3 48.4889L51.216 50.1309L55.426 44.7729C56.108 43.9049 57.364 43.7509 58.234 44.4369C59.104 45.1149 59.256 46.3729 58.572 47.2409Z" fill="#333333"/>
<path d="M43.86 63.9039C43.26 63.9639 42.64 64.0039 42.02 64.0039H34C28.96 63.9639 25.02 60.5039 22 52.0039C18.98 43.5039 16 44.5239 16 42.0039C16 41.0839 17 40.0039 20 40.0039C24.76 40.0039 28 46.0039 28 46.0039V21.0039C28 19.3439 29.34 18.0039 31 18.0039C32.66 18.0039 34 19.3439 34 21.0039V41.5039C34 41.7839 34.22 42.0039 34.5 42.0039C34.78 42.0039 35 41.7839 35 41.5039V19.0039C35 17.3439 36.34 16.0039 38 16.0039C39.66 16.0039 41 17.3439 41 19.0039V35.4439L39.74 35.8639C37.5 36.6239 36 38.7239 36 41.0839V49.1039C36 55.6639 39.8 60.6639 43.86 63.9039Z" fill="#333333"/>
<path d="M48 21.0039V33.0639L42 35.1039V21.0039C42 19.3439 43.34 18.0039 45 18.0039C46.66 18.0039 48 19.3439 48 21.0039Z" fill="#333333"/>
<path d="M55 27.0039V32.7239L53.78 32.3039C52.64 31.9039 51.36 31.9039 50.24 32.3039L49 32.7239V27.0039C49 25.3439 50.34 24.0039 52 24.0039C53.66 24.0039 55 25.3439 55 27.0039Z" fill="#333333"/>
</g>
<defs>
<clipPath id="clip0_960_35991">
<rect width="48" height="48" fill="white" transform="translate(16 16.0039)"/>
</clipPath>
</defs>
</svg>
